# xmcd CD database file
#
# Track frame offsets:
#	150
#	19445
#	39231
#	68642
#	72129
#	96414
#	109005
#	133853
#	143651
#	165333
#	183745
#	220174
#	239705
#
# Disc length: 3476 seconds
#
# Revision: 0
# Processed by: cddbd v1.5.2PL0 Copyright (c) Steve Scherf et al.
# Submitted via: CDex 1.78
#
DISCID=bd0d920d
DTITLE=Eric Vloeimans - Oliver's Cinema Act 2
DYEAR=2014
DGENRE=Jazz
TTITLE0=Fun in the Sun
TTITLE1=Vino
TTITLE2=Tonto
TTITLE3=Balsam
TTITLE4=Loose Bodies
TTITLE5=Romeo and Juliet
TTITLE6=Valse au Chocolat
TTITLE7=A little more Balsam
TTITLE8=Fur Lou
TTITLE9=Die kleine Spieluhr
TTITLE10=Kwa Heri
TTITLE11=Harry Bo
TTITLE12=Nana
EXTD=YEAR: 2014
EXTT0=
EXTT1=
EXTT2=
EXTT3=
EXTT4=
EXTT5=
EXTT6=
EXTT7=
EXTT8=
EXTT9=
EXTT10=
EXTT11=
EXTT12=
PLAYORDER=
